<?xml version="1.0" encoding="UTF-8" standalone="no"?>
<!-- Created with Inkscape (http://www.inkscape.org/) -->

<svg xmlns:dc="http://purl.org/dc/elements/1.1/" xmlns:cc="http://creativecommons.org/ns#"
   xmlns:rdf="http://www.w3.org/1999/02/22-rdf-syntax-ns#" xmlns:svg="http://www.w3.org/2000/svg"
   xmlns="http://www.w3.org/2000/svg" xmlns:sodipodi="http://sodipodi.sourceforge.net/DTD/sodipodi-0.dtd"
   xmlns:inkscape="http://www.inkscape.org/namespaces/inkscape" width="210mm" height="210mm" viewBox="0 0 210 210"
   version="1.1" id="svg8" inkscape:version="0.92.4 (5da689c313, 2019-01-14)" sodipodi:docname="babel8_gd.svg"
   inkscape:export-xdpi="25.4" inkscape:export-ydpi="25.4">
   <defs id="defs2">
      <style id="style2055">
         .cls-1 {
            fill: #8fc31f;
         }

         .cls-2 {
            fill: #fff;
         }
      </style>
   </defs>
   <sodipodi:namedview id="base" pagecolor="#ffffff" bordercolor="#666666" borderopacity="1.0"
      inkscape:pageopacity="0.0" inkscape:pageshadow="2" inkscape:zoom="0.7" inkscape:cx="306.55961"
      inkscape:cy="205.50904" inkscape:document-units="mm" inkscape:current-layer="g927" showgrid="false"
      inkscape:window-width="1842" inkscape:window-height="1051" inkscape:window-x="1669" inkscape:window-y="-9"
      inkscape:window-maximized="1" />
   <metadata id="metadata5">
      <rdf:RDF>
         <cc:Work rdf:about="">
            <dc:format>image/svg+xml</dc:format>
            <dc:type rdf:resource="http://purl.org/dc/dcmitype/StillImage" />
            <dc:title></dc:title>
         </cc:Work>
      </rdf:RDF>
   </metadata>
   <g inkscape:groupmode="layer" id="layer3" inkscape:label="maingdl">
      <g id="g927" transform="translate(0.52916667,-8.4666669)">
         <rect style="fill:#ffffff;fill-opacity:1;stroke-width:0.37192252" y="8.151082" x="-0.46320873" class="cls-1"
            width="210.47643" height="211.23238" id="rect2059" />
         <path inkscape:connector-curvature="0" id="path903"
            d="M 80.715397,30.127606 78.176336,41.753832 137.37654,33.869381 136.04019,22.64406 Z"
            style="fill:#f2dfc3;stroke:#000000;stroke-width:1.165;stroke-linecap:butt;stroke-linejoin:miter;stroke-miterlimit:4;stroke-dasharray:none;stroke-opacity:1;fill-opacity:1" />
         <path inkscape:connector-curvature="0" id="path905"
            d="m 72.563677,47.901031 -2.80633,13.630746 74.568193,-9.488069 -1.73725,-13.096206 z"
            style="fill:#f2dfc3;stroke:#000000;stroke-width:1.165;stroke-linecap:butt;stroke-linejoin:miter;stroke-miterlimit:4;stroke-dasharray:none;stroke-opacity:1;fill-opacity:1" />
         <path inkscape:connector-curvature="0" id="path907"
            d="M 63.743781,67.946245 60.670183,81.443355 150.87365,69.683497 149.67093,56.587289 Z"
            style="fill:#f2dfc3;stroke:#000000;stroke-width:1.165;stroke-linecap:butt;stroke-linejoin:miter;stroke-miterlimit:4;stroke-dasharray:none;stroke-opacity:1;fill-opacity:1" />
         <path sodipodi:nodetypes="ccccc" inkscape:connector-curvature="0" id="path909"
            d="M 54.656619,88.125095 50.914844,102.95855 158.3572,88.926903 156.88721,74.761618 Z"
            style="fill:#f2dfc3;stroke:#000000;stroke-width:1.165;stroke-linecap:butt;stroke-linejoin:miter;stroke-miterlimit:4;stroke-dasharray:none;stroke-opacity:1;fill-opacity:1" />
         <path sodipodi:nodetypes="ccccc" inkscape:connector-curvature="0" id="path911"
            d="M 45.034914,109.50666 40.624969,128.48279 167.31072,111.91208 165.03893,94.005023 Z"
            style="fill:#f2dfc3;stroke:#000000;stroke-width:1.165;stroke-linecap:butt;stroke-linejoin:miter;stroke-miterlimit:4;stroke-dasharray:none;stroke-opacity:1;fill-opacity:1" />
         <path inkscape:connector-curvature="0" id="path913"
            d="m 33.261905,135.16071 -4.91369,17.5759 147.977675,-19.46578 -2.26785,-16.63095 z"
            style="fill:#f2dfc3;stroke:#000000;stroke-width:1.165;stroke-linecap:butt;stroke-linejoin:miter;stroke-miterlimit:4;stroke-dasharray:none;stroke-opacity:1;fill-opacity:1" />
         <path inkscape:connector-curvature="0" id="path915"
            d="m 22.489583,158.97321 -7.559524,22.86756 170.858671,-23.05655 -3.22623,-20.5997 z"
            style="fill:#f2dfc3;stroke:#000000;stroke-width:1.165;stroke-linecap:butt;stroke-linejoin:miter;stroke-miterlimit:4;stroke-dasharray:none;stroke-opacity:1;fill-opacity:1"
            sodipodi:nodetypes="ccccc" />
         <path sodipodi:nodetypes="ccccccc" inkscape:connector-curvature="0" id="path917"
            d="m 6.0784149,187.90738 186.5004551,-24.58744 5.17309,26.11278 7.63013,-0.23528 0.0303,14.31221 -198.597057,-0.39184 z"
            style="fill:#f2dfc3;stroke:#000000;stroke-width:1.165;stroke-linecap:butt;stroke-linejoin:miter;stroke-miterlimit:4;stroke-dasharray:none;stroke-opacity:1;fill-opacity:1" />
         <g id="g2081" transform="matrix(0.43046721,0,0,0.43046721,122.3843,103.27951)">
            <path id="path2061"
               d="m 65.241527,185.27752 q 0,-5.48481 1.476375,-9.45092 1.476375,-3.9661 4.233333,-6.49552 a 17.179396,17.179396 0 0 1 6.664854,-3.75443 29.874104,29.874104 0 0 1 8.900583,-1.22502 38.629166,38.629166 0 0 1 9.871604,1.22502 36.411958,36.411958 0 0 1 8.437564,3.3311 v 37.71635 q 0,10.8003 -5.524501,16.7058 -5.5245,5.9055 -15.401396,5.9055 a 61.716708,61.716708 0 0 1 -9.236604,-0.63236 42.640249,42.640249 0 0 1 -8.149166,-2.06639 l 1.688041,-7.76288 a 48.781229,48.781229 0 0 0 6.4135,1.51871 46.302083,46.302083 0 0 0 7.762875,0.59002 q 6.492875,0 9.321271,-3.54277 2.828396,-3.54277 2.82575,-10.54629 v -2.78607 q -4.048125,4.98211 -12.655021,4.97946 -8.270875,0 -12.435416,-5.02708 -4.164542,-5.02708 -4.193646,-15.72948 z m 10.461625,2.61408 a 34.813875,34.813875 0 0 0 0.381,5.48482 10.847917,10.847917 0 0 0 1.391708,4.00843 6.3923333,6.3923333 0 0 0 2.82575,2.48973 q 1.812396,0.84138 4.683125,0.84402 4.976812,0 7.254875,-2.78606 2.278062,-2.78606 2.278062,-8.68892 v -15.10506 a 11.162771,11.162771 0 0 0 -3.704166,-1.34937 23.241,23.241 0 0 0 -4.394729,-0.40746 q -5.55625,0 -8.14123,2.86808 -2.584979,2.86809 -2.574395,9.61761 z"
               class="cls-2" inkscape:connector-curvature="0"
               style="fill:#8fc31f;fill-opacity:1;stroke-width:0.26458332" />
            <path id="path2063"
               d="m 117.63696,185.87548 q 0,-5.6515 1.34938,-9.70227 1.34937,-4.05077 3.79942,-6.6675 a 15.113,15.113 0 0 1 5.86316,-3.88144 21.396854,21.396854 0 0 1 7.46654,-1.26471 19.452166,19.452166 0 0 1 6.0325,0.84402 25.955625,25.955625 0 0 1 5.02709,2.27807 v -21.02909 h 10.29229 v 62.70625 h -8.94292 l -0.67469,-4.64079 a 12.47775,12.47775 0 0 1 -1.8997,1.98173 14.882812,14.882812 0 0 1 -2.74109,1.81504 15.909396,15.909396 0 0 1 -3.79677,1.34938 22.608646,22.608646 0 0 1 -5.06412,0.50535 q -4.55613,0 -7.76023,-1.47637 a 12.816417,12.816417 0 0 1 -5.19113,-4.2598 q -1.98173,-2.78606 -2.86808,-6.74952 a 41.206208,41.206208 0 0 1 -0.88635,-8.94556 z m 10.46163,2.70139 a 35.012312,35.012312 0 0 0 0.42333,5.7785 11.403542,11.403542 0 0 0 1.47638,4.17778 6.8050832,6.8050832 0 0 0 2.91041,2.57175 q 1.85209,0.88635 4.6408,0.88635 2.7887,0 4.64079,-0.79375 a 6.9347291,6.9347291 0 0 0 2.95275,-2.3204 9.6758124,9.6758124 0 0 0 1.56104,-3.66977 22.640396,22.640396 0 0 0 0.46566,-4.7625 v -15.7136 a 20.306771,20.306771 0 0 0 -4.0931,-1.77271 15.483416,15.483416 0 0 0 -4.42912,-0.57679 q -5.65415,0 -8.10155,3.12208 -2.44739,3.12209 -2.44739,9.95627 z"
               class="cls-2" inkscape:connector-curvature="0"
               style="fill:#8fc31f;fill-opacity:1;stroke-width:0.26458332" />
         </g>
      </g>
   </g>
</svg>